<svg width="255" height="256" viewBox="0 0 255 256" fill="none" xmlns="http://www.w3.org/2000/svg">
<rect width="255" height="256" fill="#1E1E1E"/>
<rect width="255" height="256" fill="#B8B8B8"/>
<g filter="url(#filter0_d_0_1)">
<path d="M117.797 71.6032C114.22 69.7467 128.877 52.0306 131.161 49.8914C139.616 41.9706 156.386 41.567 167.277 43.0539C172.916 43.8238 179.677 43.1568 184.673 46.4689C190.629 50.4178 196.002 55.4136 200.732 60.7031C210.148 71.2351 209.69 84.4915 206.388 97.4489C205.173 102.217 204.772 109.861 200.534 113.113C194.368 117.845 188.49 117.611 181.289 119.499C177.492 120.494 174.037 120.209 171.108 122.84C168.405 125.269 165.223 127.101 162.621 129.77C158.165 134.342 156.462 142.137 152.19 147.236C148.158 152.049 142.984 156.27 140.786 162.209" stroke="black" stroke-width="9" stroke-linecap="round"/>
</g>
<path d="M102.526 189.148C98.5035 193.673 97.7111 185.31 98.0816 185.204C102.981 183.804 104.648 189.965 102.526 193.148" stroke="black" stroke-width="9" stroke-linecap="round"/>
<path d="M26.4523 109C25.6717 110.186 26.4974 112.569 26.0664 114.075C24.204 120.583 21.7526 127.019 19.724 133.493C16.1086 145.031 16.2024 154.823 23.1841 165.217C34.22 181.647 50.4149 195.167 65.3436 207.903C73.82 215.134 80.7237 219.722 91.7513 221.888C96.5516 222.83 99.9698 224.521 104.974 222.652C107.068 221.87 114.546 218.847 113.657 222.831C112.088 229.869 113.074 230.515 120.24 231.806C124.31 232.54 124.333 236.017 123.704 239.216C123.048 242.556 123.42 242.99 125.905 245.111C127.689 246.632 130.243 246.452 131.175 248.949C131.897 250.882 131.57 252.747 132.327 254.532" stroke="#596DB5" stroke-width="9" stroke-linecap="round"/>
<path d="M59.6662 141.784H69.598L74.5909 148.207L79.5028 153.929L88.7599 165.534H77.8565L71.4872 157.707L68.2216 153.065L59.6662 141.784ZM89.5966 133.364C89.5966 139.391 88.4541 144.519 86.169 148.747C83.902 152.975 80.8073 156.205 76.8849 158.436C72.9806 160.649 68.5904 161.756 63.7145 161.756C58.8026 161.756 54.3944 160.64 50.4901 158.409C46.5857 156.178 43.5 152.948 41.233 148.72C38.9659 144.492 37.8324 139.373 37.8324 133.364C37.8324 127.336 38.9659 122.208 41.233 117.98C43.5 113.752 46.5857 110.531 50.4901 108.318C54.3944 106.087 58.8026 104.972 63.7145 104.972C68.5904 104.972 72.9806 106.087 76.8849 108.318C80.8073 110.531 83.902 113.752 86.169 117.98C88.4541 122.208 89.5966 127.336 89.5966 133.364ZM77.7486 133.364C77.7486 129.459 77.1638 126.167 75.9943 123.486C74.8428 120.805 73.2145 118.772 71.1094 117.386C69.0043 116.001 66.5393 115.308 63.7145 115.308C60.8897 115.308 58.4247 116.001 56.3196 117.386C54.2145 118.772 52.5772 120.805 51.4077 123.486C50.2562 126.167 49.6804 129.459 49.6804 133.364C49.6804 137.268 50.2562 140.561 51.4077 143.241C52.5772 145.922 54.2145 147.955 56.3196 149.341C58.4247 150.726 60.8897 151.419 63.7145 151.419C66.5393 151.419 69.0043 150.726 71.1094 149.341C73.2145 147.955 74.8428 145.922 75.9943 143.241C77.1638 140.561 77.7486 137.268 77.7486 133.364ZM129.941 143.349V119.545H141.438V161H130.4V153.47H129.968C129.032 155.899 127.476 157.851 125.299 159.327C123.14 160.802 120.504 161.54 117.391 161.54C114.621 161.54 112.183 160.91 110.077 159.651C107.972 158.391 106.326 156.601 105.139 154.28C103.969 151.959 103.375 149.179 103.357 145.94V119.545H114.854V143.889C114.872 146.336 115.529 148.27 116.825 149.692C118.12 151.113 119.856 151.824 122.033 151.824C123.419 151.824 124.714 151.509 125.92 150.879C127.125 150.232 128.097 149.278 128.835 148.018C129.59 146.759 129.959 145.203 129.941 143.349ZM155.955 161V119.545H167.452V161H155.955ZM161.73 114.202C160.021 114.202 158.555 113.635 157.331 112.501C156.126 111.35 155.523 109.973 155.523 108.372C155.523 106.789 156.126 105.43 157.331 104.297C158.555 103.145 160.021 102.57 161.73 102.57C163.439 102.57 164.897 103.145 166.102 104.297C167.326 105.43 167.938 106.789 167.938 108.372C167.938 109.973 167.326 111.35 166.102 112.501C164.897 113.635 163.439 114.202 161.73 114.202ZM181.766 161V154.145L202.061 129.018V128.722H182.467V119.545H215.906V127.021L196.852 151.527V151.824H216.608V161H181.766Z" fill="#785B5B"/>
<path d="M59.6662 141.784V136.784H49.5991L55.6823 144.805L59.6662 141.784ZM69.598 141.784L73.5457 138.716L72.0443 136.784H69.598V141.784ZM74.5909 148.207L70.6433 151.276L70.7179 151.372L70.7972 151.464L74.5909 148.207ZM79.5028 153.929L83.4116 150.811L83.3554 150.741L83.2966 150.672L79.5028 153.929ZM88.7599 165.534V170.534H99.1442L92.6687 162.416L88.7599 165.534ZM77.8565 165.534L73.9784 168.69L75.4791 170.534H77.8565V165.534ZM71.4872 157.707L67.3978 160.584L67.4985 160.728L67.6091 160.863L71.4872 157.707ZM68.2216 153.065L72.311 150.188L72.2596 150.115L72.2055 150.044L68.2216 153.065ZM86.169 148.747L81.7703 146.37L81.7664 146.377L81.7625 146.384L86.169 148.747ZM76.8849 158.436L79.3505 162.786L79.357 162.782L76.8849 158.436ZM50.4901 158.409L52.9708 154.068L50.4901 158.409ZM41.233 148.72L36.8264 151.083L36.8264 151.083L41.233 148.72ZM41.233 117.98L45.6395 120.343L45.6395 120.343L41.233 117.98ZM50.4901 108.318L52.9556 112.668L52.9632 112.664L52.9708 112.659L50.4901 108.318ZM76.8849 108.318L74.4042 112.659L74.4161 112.666L74.428 112.673L76.8849 108.318ZM86.169 117.98L81.7625 120.343L81.7664 120.35L81.7703 120.357L86.169 117.98ZM75.9943 123.486L71.4002 125.459L71.4058 125.472L71.4114 125.485L75.9943 123.486ZM71.1094 117.386L68.3606 121.563L68.3606 121.563L71.1094 117.386ZM56.3196 117.386L59.0683 121.563L59.0683 121.563L56.3196 117.386ZM51.4077 123.486L46.8248 121.487L46.8191 121.499L46.8135 121.512L51.4077 123.486ZM51.4077 143.241L46.8135 145.215L46.8191 145.228L46.8248 145.241L51.4077 143.241ZM56.3196 149.341L59.0683 145.164L59.0683 145.164L56.3196 149.341ZM71.1094 149.341L68.3606 145.164L68.3606 145.164L71.1094 149.341ZM75.9943 143.241L71.4114 141.242L71.4058 141.255L71.4002 141.268L75.9943 143.241ZM59.6662 146.784H69.598V136.784H59.6662V146.784ZM65.6504 144.853L70.6433 151.276L78.5386 145.139L73.5457 138.716L65.6504 144.853ZM70.7972 151.464L75.7091 157.186L83.2966 150.672L78.3847 144.95L70.7972 151.464ZM75.5941 157.047L84.8512 168.652L92.6687 162.416L83.4116 150.811L75.5941 157.047ZM88.7599 160.534H77.8565V170.534H88.7599V160.534ZM81.7347 162.378L75.3653 154.551L67.6091 160.863L73.9784 168.69L81.7347 162.378ZM75.5767 154.831L72.311 150.188L64.1321 155.942L67.3978 160.584L75.5767 154.831ZM72.2055 150.044L63.6501 138.763L55.6823 144.805L64.2377 156.087L72.2055 150.044ZM84.5966 133.364C84.5966 138.768 83.5728 143.035 81.7703 146.37L90.5678 151.124C93.3354 146.003 94.5966 140.014 94.5966 133.364H84.5966ZM81.7625 146.384C79.9111 149.837 77.464 152.354 74.4128 154.09L79.357 162.782C84.1506 160.056 87.8928 156.113 90.5756 151.11L81.7625 146.384ZM74.4194 154.086C71.3311 155.837 67.8031 156.756 63.7145 156.756V166.756C69.3778 166.756 74.6301 165.462 79.3505 162.786L74.4194 154.086ZM63.7145 156.756C59.5901 156.756 56.051 155.828 52.9708 154.068L48.0094 162.75C52.7378 165.452 58.015 166.756 63.7145 166.756V156.756ZM52.9708 154.068C49.9364 152.334 47.494 149.816 45.6395 146.358L36.8264 151.083C39.506 156.081 43.235 160.022 48.0094 162.75L52.9708 154.068ZM45.6395 146.358C43.8484 143.017 42.8324 138.753 42.8324 133.364H32.8324C32.8324 139.993 34.0835 145.967 36.8264 151.083L45.6395 146.358ZM42.8324 133.364C42.8324 127.953 43.8494 123.681 45.6395 120.343L36.8264 115.617C34.0824 120.735 32.8324 126.719 32.8324 133.364H42.8324ZM45.6395 120.343C47.4924 116.887 49.9302 114.383 52.9556 112.668L48.0245 103.968C43.2412 106.68 39.5076 110.617 36.8264 115.617L45.6395 120.343ZM52.9708 112.659C56.051 110.899 59.5901 109.972 63.7145 109.972V99.9716C58.015 99.9716 52.7378 101.275 48.0094 103.977L52.9708 112.659ZM63.7145 109.972C67.7959 109.972 71.3184 110.896 74.4042 112.659L79.3656 103.977C74.6428 101.278 69.385 99.9716 63.7145 99.9716V109.972ZM74.428 112.673C77.4702 114.389 79.9128 116.893 81.7625 120.343L90.5756 115.617C87.8912 110.611 84.1444 106.673 79.3419 103.964L74.428 112.673ZM81.7703 120.357C83.5728 123.693 84.5966 127.959 84.5966 133.364H94.5966C94.5966 126.713 93.3354 120.724 90.5678 115.603L81.7703 120.357ZM82.7486 133.364C82.7486 128.99 82.0974 124.971 80.5772 121.487L71.4114 125.485C72.2302 127.362 72.7486 129.929 72.7486 133.364H82.7486ZM80.5884 121.512C79.1132 118.078 76.9036 115.214 73.8581 113.21L68.3606 121.563C69.5254 122.33 70.5725 123.532 71.4002 125.459L80.5884 121.512ZM73.8581 113.21C70.8404 111.224 67.3941 110.308 63.7145 110.308V120.308C65.6845 120.308 67.1681 120.778 68.3606 121.563L73.8581 113.21ZM63.7145 110.308C60.0349 110.308 56.5885 111.224 53.5709 113.21L59.0683 121.563C60.2609 120.778 61.7445 120.308 63.7145 120.308V110.308ZM53.5709 113.21C50.5328 115.209 48.3181 118.063 46.8248 121.487L55.9906 125.485C56.8363 123.546 57.8962 122.334 59.0683 121.563L53.5709 113.21ZM46.8135 121.512C45.3202 124.989 44.6804 128.998 44.6804 133.364H54.6804C54.6804 129.921 55.1922 127.344 56.0018 125.459L46.8135 121.512ZM44.6804 133.364C44.6804 137.729 45.3202 141.738 46.8135 145.215L56.0018 141.268C55.1922 139.383 54.6804 136.806 54.6804 133.364H44.6804ZM46.8248 145.241C48.3181 148.664 50.5328 151.518 53.5709 153.518L59.0683 145.164C57.8962 144.393 56.8363 143.181 55.9906 141.242L46.8248 145.241ZM53.5709 153.518C56.5885 155.504 60.0349 156.419 63.7145 156.419V146.419C61.7445 146.419 60.2609 145.949 59.0683 145.164L53.5709 153.518ZM63.7145 156.419C67.3941 156.419 70.8404 155.504 73.8581 153.518L68.3606 145.164C67.1681 145.949 65.6845 146.419 63.7145 146.419V156.419ZM73.8581 153.518C76.9036 151.513 79.1132 148.649 80.5884 145.215L71.4002 141.268C70.5725 143.195 69.5254 144.398 68.3606 145.164L73.8581 153.518ZM80.5772 145.241C82.0974 141.756 82.7486 137.738 82.7486 133.364H72.7486C72.7486 136.798 72.2302 139.365 71.4114 141.242L80.5772 145.241ZM129.941 143.349H124.941V143.374L124.941 143.398L129.941 143.349ZM129.941 119.545V114.545H124.941V119.545H129.941ZM141.438 119.545H146.438V114.545H141.438V119.545ZM141.438 161V166H146.438V161H141.438ZM130.4 161H125.4V166H130.4V161ZM130.4 153.47H135.4V148.47H130.4V153.47ZM129.968 153.47V148.47H126.536L125.302 151.673L129.968 153.47ZM125.299 159.327L122.494 155.188L122.486 155.193L122.478 155.198L125.299 159.327ZM110.077 159.651L112.645 155.36L112.645 155.36L110.077 159.651ZM105.139 154.28L100.673 156.53L100.68 156.543L100.687 156.557L105.139 154.28ZM103.357 145.94H98.3573V145.954L98.3574 145.968L103.357 145.94ZM103.357 119.545V114.545H98.3573V119.545H103.357ZM114.854 119.545H119.854V114.545H114.854V119.545ZM114.854 143.889H109.854V143.908L109.855 143.926L114.854 143.889ZM116.825 149.692L120.52 146.324L120.52 146.324L116.825 149.692ZM125.92 150.879L128.235 155.311L128.261 155.298L128.286 155.284L125.92 150.879ZM128.835 148.018L124.547 145.446L124.533 145.469L124.52 145.491L128.835 148.018ZM134.941 143.349V119.545H124.941V143.349H134.941ZM129.941 124.545H141.438V114.545H129.941V124.545ZM136.438 119.545V161H146.438V119.545H136.438ZM141.438 156H130.4V166H141.438V156ZM135.4 161V153.47H125.4V161H135.4ZM130.4 148.47H129.968V158.47H130.4V148.47ZM125.302 151.673C124.737 153.139 123.836 154.278 122.494 155.188L128.104 163.466C131.116 161.424 133.327 158.659 134.634 155.267L125.302 151.673ZM122.478 155.198C121.298 156.005 119.693 156.54 117.391 156.54V166.54C121.315 166.54 124.982 165.599 128.12 163.455L122.478 155.198ZM117.391 156.54C115.405 156.54 113.877 156.097 112.645 155.36L107.51 163.941C110.488 165.723 113.836 166.54 117.391 166.54V156.54ZM112.645 155.36C111.395 154.612 110.378 153.544 109.59 152.002L100.687 156.557C102.274 159.658 104.55 162.17 107.51 163.941L112.645 155.36ZM109.604 152.03C108.857 150.547 108.372 148.565 108.357 145.913L98.3574 145.968C98.3786 149.793 99.0815 153.371 100.673 156.53L109.604 152.03ZM108.357 145.94V119.545H98.3573V145.94H108.357ZM103.357 124.545H114.854V114.545H103.357V124.545ZM109.854 119.545V143.889H119.854V119.545H109.854ZM109.855 143.926C109.879 147.259 110.796 150.499 113.129 153.06L120.52 146.324C120.263 146.041 119.866 145.413 119.854 143.852L109.855 143.926ZM113.129 153.06C115.502 155.663 118.655 156.824 122.033 156.824V146.824C121.057 146.824 120.738 146.563 120.52 146.324L113.129 153.06ZM122.033 156.824C124.209 156.824 126.301 156.321 128.235 155.311L123.605 146.448C123.128 146.697 122.628 146.824 122.033 146.824V156.824ZM128.286 155.284C130.356 154.172 131.979 152.543 133.149 150.545L124.52 145.491C124.215 146.013 123.895 146.291 123.553 146.475L128.286 155.284ZM133.122 150.591C134.462 148.358 134.965 145.838 134.941 143.301L124.941 143.398C124.953 144.568 124.718 145.16 124.547 145.446L133.122 150.591ZM155.955 161H150.955V166H155.955V161ZM155.955 119.545V114.545H150.955V119.545H155.955ZM167.452 119.545H172.452V114.545H167.452V119.545ZM167.452 161V166H172.452V161H167.452ZM157.331 112.501L153.877 116.117L153.905 116.143L153.933 116.169L157.331 112.501ZM157.331 104.297L160.756 107.939L160.758 107.938L157.331 104.297ZM166.102 104.297L162.649 107.912L162.676 107.939L162.704 107.965L166.102 104.297ZM166.102 112.501L169.527 116.144L169.529 116.142L166.102 112.501ZM160.955 161V119.545H150.955V161H160.955ZM155.955 124.545H167.452V114.545H155.955V124.545ZM162.452 119.545V161H172.452V119.545H162.452ZM167.452 156H155.955V166H167.452V156ZM161.73 109.202C161.246 109.202 161.003 109.087 160.729 108.834L153.933 116.169C156.106 118.182 158.795 119.202 161.73 119.202V109.202ZM160.785 108.886C160.608 108.717 160.563 108.619 160.555 108.6C160.548 108.585 160.523 108.529 160.523 108.372H150.523C150.523 111.401 151.73 114.066 153.877 116.117L160.785 108.886ZM160.523 108.372C160.523 108.295 160.53 108.25 160.534 108.23C160.538 108.211 160.542 108.201 160.545 108.194C160.547 108.189 160.584 108.102 160.756 107.939L153.906 100.654C151.746 102.685 150.523 105.341 150.523 108.372H160.523ZM160.758 107.938C161.036 107.676 161.27 107.57 161.73 107.57V97.5696C158.772 97.5696 156.073 98.6147 153.904 100.656L160.758 107.938ZM161.73 107.57C162.189 107.57 162.399 107.674 162.649 107.912L169.556 100.681C167.394 98.6165 164.69 97.5696 161.73 97.5696V107.57ZM162.704 107.965C162.797 108.051 162.85 108.115 162.879 108.154C162.907 108.192 162.917 108.213 162.92 108.219C162.922 108.224 162.925 108.23 162.928 108.245C162.931 108.26 162.938 108.3 162.938 108.372H172.938C172.938 105.315 171.684 102.652 169.5 100.629L162.704 107.965ZM162.938 108.372C162.938 108.518 162.914 108.566 162.91 108.575C162.903 108.589 162.859 108.688 162.676 108.86L169.529 116.142C171.701 114.098 172.938 111.427 172.938 108.372H162.938ZM162.677 108.859C162.432 109.089 162.213 109.202 161.73 109.202V119.202C164.666 119.202 167.361 118.181 169.527 116.144L162.677 108.859ZM181.766 161H176.766V166H181.766V161ZM181.766 154.145L177.876 151.003L176.766 152.378V154.145H181.766ZM202.061 129.018L205.951 132.16L207.061 130.786V129.018H202.061ZM202.061 128.722H207.061V123.722H202.061V128.722ZM182.467 128.722H177.467V133.722H182.467V128.722ZM182.467 119.545V114.545H177.467V119.545H182.467ZM215.906 119.545H220.906V114.545H215.906V119.545ZM215.906 127.021L219.854 130.09L220.906 128.736V127.021H215.906ZM196.852 151.527L192.905 148.458L191.852 149.812V151.527H196.852ZM196.852 151.824H191.852V156.824H196.852V151.824ZM216.608 151.824H221.608V146.824H216.608V151.824ZM216.608 161V166H221.608V161H216.608ZM186.766 161V154.145H176.766V161H186.766ZM185.655 157.287L205.951 132.16L198.172 125.877L177.876 151.003L185.655 157.287ZM207.061 129.018V128.722H197.061V129.018H207.061ZM202.061 123.722H182.467V133.722H202.061V123.722ZM187.467 128.722V119.545H177.467V128.722H187.467ZM182.467 124.545H215.906V114.545H182.467V124.545ZM210.906 119.545V127.021H220.906V119.545H210.906ZM211.959 123.952L192.905 148.458L200.8 154.596L219.854 130.09L211.959 123.952ZM191.852 151.527V151.824H201.852V151.527H191.852ZM196.852 156.824H216.608V146.824H196.852V156.824ZM211.608 151.824V161H221.608V151.824H211.608ZM216.608 156H181.766V166H216.608V156Z" fill="#FFFCFC"/>
<defs>
<filter id="filter0_d_0_1" x="112.741" y="37.873" width="111.293" height="136.838" filterUnits="userSpaceOnUse" color-interpolation-filters="sRGB">
<feFlood flood-opacity="0" result="BackgroundImageFix"/>
<feColorMatrix in="SourceAlpha" type="matrix" values="0 0 0 0 0 0 0 0 0 0 0 0 0 0 0 0 0 0 127 0" result="hardAlpha"/>
<feOffset dx="7" dy="4"/>
<feGaussianBlur stdDeviation="2"/>
<feComposite in2="hardAlpha" operator="out"/>
<feColorMatrix type="matrix" values="0 0 0 0 0 0 0 0 0 0 0 0 0 0 0 0 0 0 0.51 0"/>
<feBlend mode="normal" in2="BackgroundImageFix" result="effect1_dropShadow_0_1"/>
<feBlend mode="normal" in="SourceGraphic" in2="effect1_dropShadow_0_1" result="shape"/>
</filter>
</defs>
</svg>
